# xmcd
#
# Track frame offsets:
#	150
#	12983
#	24849
#	35594
#	44033
#	54704
#	67385
#	81846
#	92309
#	101560
#	111729
#	120863
#	130773
#	139953
#	150059
#	162515
#	172624
#	181409
#	191328
#	203029
#	212149
#	223495
#	232744
#	242618
#	251971
#	264378
#	274153
#	285991
#	294544
#	305941
#	316402
#
# Disc length: 4343 seconds
# Revision: 0
# Processed by: cddbd v1.5.2PL0 Copyright (c) Steve Scherf et al.
# Submitted via: dBpowerAMP V12.0
#
DISCID=c610f51f
DTITLE=Browns, The - The Complete As and Bs and More: 1954-1962, Disc 2
DYEAR=2016
DGENRE=Country
TTITLE0=Three Bells, The
TTITLE1=Scarlet Ribbons
TTITLE2=Blue Bells Ring
TTITLE3=Teen-Ex
TTITLE4=Old Lamplighter, The
TTITLE5=Margo (The Ninth of May)
TTITLE6=Lonely Little Robin
TTITLE7=Whiffenpoof Song, The
TTITLE8=Brighten the Corner Where You Are
TTITLE9=Send Me the Pillow You Dream On
TTITLE10=You're So Much a Part of Me
TTITLE11=Blue Christmas
TTITLE12=Greenwillow Christmas
TTITLE13=Ground Hog
TTITLE14=Angel's Dolly
TTITLE15=Whispering Wine
TTITLE16=My Baby's Gone
TTITLE17=Foolish Pride
TTITLE18=Alpha and Omega
TTITLE19=Buttons and Bows
TTITLE20=Remember Me
TTITLE21=It's Just a Little Heartache
TTITLE22=Old Master Painter, The
TTITLE23=Sky Princess
TTITLE24=My Isle of Golden Dreams
TTITLE25=Indian Love Call
TTITLE26=Blues Stay Away From Me
TTITLE27=Am I That Easy to Forget
TTITLE28=Have You Ever Been Lonely
TTITLE29=In the Pines
TTITLE30=John B. Sails
EXTD=
EXTT0=
EXTT1=
EXTT2=
EXTT3=
EXTT4=
EXTT5=
EXTT6=
EXTT7=
EXTT8=
EXTT9=
EXTT10=
EXTT11=
EXTT12=
EXTT13=
EXTT14=
EXTT15=
EXTT16=
EXTT17=
EXTT18=
EXTT19=
EXTT20=
EXTT21=
EXTT22=
EXTT23=
EXTT24=
EXTT25=
EXTT26=
EXTT27=
EXTT28=
EXTT29=
EXTT30=
PLAYORDER=
